<svg width="40" height="40" viewBox="0 0 40 40" fill="none" xmlns="http://www.w3.org/2000/svg">
<rect width="40" height="40" rx="20" fill="#28BD9B" fill-opacity="0.1"/>
<g clip-path="url(#clip0_1207_3577)">
<path d="M19.604 11.9127C19.6406 11.839 19.697 11.7768 19.7669 11.7334C19.8369 11.69 19.9175 11.667 19.9999 11.667C20.0822 11.667 20.1629 11.69 20.2328 11.7334C20.3028 11.7768 20.3592 11.839 20.3957 11.9127L22.3207 15.8119C22.4475 16.0685 22.6347 16.2906 22.8662 16.4589C23.0977 16.6273 23.3666 16.737 23.6499 16.7786L27.9549 17.4086C28.0364 17.4204 28.1131 17.4548 28.1761 17.5079C28.2391 17.561 28.2861 17.6307 28.3116 17.7091C28.337 17.7875 28.3401 17.8714 28.3204 17.9514C28.3006 18.0315 28.2589 18.1044 28.1999 18.1619L25.0865 21.1936C24.8812 21.3937 24.7276 21.6406 24.6389 21.9133C24.5502 22.1859 24.5291 22.476 24.5774 22.7586L25.3124 27.0419C25.3268 27.1234 25.318 27.2074 25.287 27.2841C25.2559 27.3609 25.204 27.4274 25.137 27.4761C25.07 27.5247 24.9907 27.5536 24.9081 27.5593C24.8255 27.5651 24.743 27.5475 24.6699 27.5086L20.8215 25.4852C20.568 25.3521 20.2859 25.2825 19.9995 25.2825C19.7131 25.2825 19.4309 25.3521 19.1774 25.4852L15.3299 27.5086C15.2568 27.5472 15.1744 27.5646 15.0919 27.5588C15.0095 27.5529 14.9303 27.524 14.8635 27.4754C14.7966 27.4268 14.7447 27.3604 14.7138 27.2838C14.6828 27.2071 14.6739 27.1233 14.6882 27.0419L15.4224 22.7594C15.4709 22.4767 15.4499 22.1864 15.3612 21.9136C15.2724 21.6408 15.1187 21.3937 14.9132 21.1936L11.7999 18.1627C11.7404 18.1053 11.6982 18.0322 11.6782 17.952C11.6581 17.8717 11.6611 17.7874 11.6866 17.7087C11.7121 17.63 11.7593 17.5601 11.8226 17.5069C11.8859 17.4537 11.963 17.4193 12.0449 17.4077L16.349 16.7786C16.6326 16.7373 16.9019 16.6278 17.1337 16.4594C17.3655 16.291 17.553 16.0688 17.6799 15.8119L19.604 11.9127Z" stroke="#28BD9B" stroke-width="1.66667" stroke-linecap="round" stroke-linejoin="round"/>
</g>
<defs>
<clipPath id="clip0_1207_3577">
<rect width="20" height="20" fill="white" transform="translate(10 10)"/>
</clipPath>
</defs>
</svg>
