<svg width="32" height="32" viewBox="0 0 32 32" fill="none" xmlns="http://www.w3.org/2000/svg">
<rect width="32" height="32" rx="16" fill="#28BD9B" fill-opacity="0.15"/>
<g clip-path="url(#clip0_1687_1219)">
<path d="M15.9997 22.6668C19.6816 22.6668 22.6663 19.6821 22.6663 16.0002C22.6663 12.3183 19.6816 9.3335 15.9997 9.3335C12.3178 9.3335 9.33301 12.3183 9.33301 16.0002C9.33301 19.6821 12.3178 22.6668 15.9997 22.6668Z" stroke="#28BD9B" stroke-width="2" stroke-linecap="round" stroke-linejoin="round"/>
<path d="M16 20C18.2091 20 20 18.2091 20 16C20 13.7909 18.2091 12 16 12C13.7909 12 12 13.7909 12 16C12 18.2091 13.7909 20 16 20Z" stroke="#28BD9B" stroke-width="2" stroke-linecap="round" stroke-linejoin="round"/>
<path d="M16.0003 17.3332C16.7367 17.3332 17.3337 16.7362 17.3337 15.9998C17.3337 15.2635 16.7367 14.6665 16.0003 14.6665C15.2639 14.6665 14.667 15.2635 14.667 15.9998C14.667 16.7362 15.2639 17.3332 16.0003 17.3332Z" stroke="#28BD9B" stroke-width="2" stroke-linecap="round" stroke-linejoin="round"/>
</g>
<defs>
<clipPath id="clip0_1687_1219">
<rect width="16" height="16" fill="white" transform="translate(8 8)"/>
</clipPath>
</defs>
</svg>
