<svg width="40" height="40" viewBox="0 0 40 40" fill="none" xmlns="http://www.w3.org/2000/svg">
<rect width="40" height="40" rx="20" fill="#DC2828" fill-opacity="0.1"/>
<path d="M28.108 24.9999L21.4414 13.3332C21.296 13.0767 21.0852 12.8634 20.8305 12.7149C20.5757 12.5665 20.2862 12.4883 19.9914 12.4883C19.6965 12.4883 19.407 12.5665 19.1523 12.7149C18.8975 12.8634 18.6867 13.0767 18.5414 13.3332L11.8747 24.9999C11.7278 25.2543 11.6507 25.5431 11.6514 25.837C11.652 26.1308 11.7303 26.4192 11.8784 26.673C12.0265 26.9269 12.239 27.137 12.4944 27.2822C12.7499 27.4274 13.0392 27.5025 13.333 27.4999H26.6664C26.9588 27.4996 27.246 27.4223 27.4991 27.2759C27.7522 27.1295 27.9624 26.9191 28.1085 26.6658C28.2545 26.4125 28.3314 26.1252 28.3313 25.8328C28.3312 25.5404 28.2542 25.2531 28.108 24.9999Z" stroke="#DC2828" stroke-width="1.66667" stroke-linecap="round" stroke-linejoin="round"/>
<path d="M20 17.5V20.8333" stroke="#DC2828" stroke-width="1.66667" stroke-linecap="round" stroke-linejoin="round"/>
<path d="M20 24.1665H20.0083" stroke="#DC2828" stroke-width="1.66667" stroke-linecap="round" stroke-linejoin="round"/>
</svg>
