<svg width="32" height="32" viewBox="0 0 32 32" fill="none" xmlns="http://www.w3.org/2000/svg">
<rect width="32" height="32" rx="16" fill="#BF8C40" fill-opacity="0.15"/>
<g clip-path="url(#clip0_1687_1193)">
<path d="M15.6832 9.53009C15.7124 9.47107 15.7576 9.42138 15.8135 9.38664C15.8695 9.3519 15.934 9.3335 15.9999 9.3335C16.0658 9.3335 16.1303 9.3519 16.1863 9.38664C16.2422 9.42138 16.2873 9.47107 16.3166 9.53009L17.8566 12.6494C17.958 12.8547 18.1078 13.0324 18.293 13.1671C18.4782 13.3018 18.6933 13.3895 18.9199 13.4228L22.3639 13.9268C22.4292 13.9362 22.4905 13.9637 22.5409 14.0062C22.5913 14.0487 22.6289 14.1045 22.6492 14.1672C22.6696 14.2299 22.6721 14.297 22.6563 14.361C22.6405 14.4251 22.6071 14.4834 22.5599 14.5294L20.0692 16.9548C19.905 17.1148 19.7821 17.3124 19.7111 17.5305C19.6402 17.7486 19.6233 17.9807 19.6619 18.2068L20.2499 21.6334C20.2614 21.6987 20.2544 21.7658 20.2296 21.8272C20.2048 21.8886 20.1632 21.9418 20.1096 21.9808C20.056 22.0197 19.9926 22.0428 19.9265 22.0474C19.8604 22.052 19.7944 22.0379 19.7359 22.0068L16.6572 20.3881C16.4544 20.2816 16.2287 20.2259 15.9996 20.2259C15.7704 20.2259 15.5448 20.2816 15.3419 20.3881L12.2639 22.0068C12.2055 22.0377 12.1395 22.0516 12.0735 22.0469C12.0076 22.0422 11.9442 22.0191 11.8908 21.9802C11.8373 21.9413 11.7958 21.8882 11.771 21.8269C11.7462 21.7656 11.7391 21.6986 11.7506 21.6334L12.3379 18.2074C12.3767 17.9812 12.3599 17.749 12.2889 17.5308C12.218 17.3126 12.095 17.1149 11.9306 16.9548L9.4399 14.5301C9.39229 14.4841 9.35856 14.4257 9.34254 14.3615C9.32652 14.2973 9.32886 14.2298 9.34928 14.1669C9.36971 14.1039 9.40741 14.048 9.45808 14.0054C9.50876 13.9628 9.57037 13.9354 9.6359 13.9261L13.0792 13.4228C13.3061 13.3898 13.5215 13.3021 13.707 13.1674C13.8924 13.0327 14.0424 12.8549 14.1439 12.6494L15.6832 9.53009Z" stroke="#CDCDCD" stroke-width="2" stroke-linecap="round" stroke-linejoin="round"/>
</g>
<defs>
<clipPath id="clip0_1687_1193">
<rect width="16" height="16" fill="white" transform="translate(8 8)"/>
</clipPath>
</defs>
</svg>
