<svg width="24" height="24" viewBox="0 0 24 24" fill="none" xmlns="http://www.w3.org/2000/svg">
<g clip-path="url(#clip0_703_483)">
<path d="M12.0002 1.5C12.6658 1.5 13.2799 1.85156 13.6174 2.42812L23.7424 19.6781C24.0846 20.2594 24.0846 20.9766 23.7518 21.5578C23.419 22.1391 22.7955 22.5 22.1252 22.5H1.87522C1.20491 22.5 0.581473 22.1391 0.24866 21.5578C-0.084152 20.9766 -0.0794645 20.2547 0.258035 19.6781L10.383 2.42812C10.7205 1.85156 11.3346 1.5 12.0002 1.5ZM12.0002 7.5C11.3768 7.5 10.8752 8.00156 10.8752 8.625V13.875C10.8752 14.4984 11.3768 15 12.0002 15C12.6237 15 13.1252 14.4984 13.1252 13.875V8.625C13.1252 8.00156 12.6237 7.5 12.0002 7.5ZM13.5002 18C13.5002 17.6022 13.3422 17.2206 13.0609 16.9393C12.7796 16.658 12.398 16.5 12.0002 16.5C11.6024 16.5 11.2209 16.658 10.9396 16.9393C10.6583 17.2206 10.5002 17.6022 10.5002 18C10.5002 18.3978 10.6583 18.7794 10.9396 19.0607C11.2209 19.342 11.6024 19.5 12.0002 19.5C12.398 19.5 12.7796 19.342 13.0609 19.0607C13.3422 18.7794 13.5002 18.3978 13.5002 18Z" fill="#F9712A"/>
</g>
<defs>
<clipPath id="clip0_703_483">
<path d="M0 0H24V24H0V0Z" fill="white"/>
</clipPath>
</defs>
</svg>
